HIERARCHY
ROOT Hips
{
	OFFSET -0.179506 -22.333345 2.821913
	CHANNELS 6 Xposition Yposition Zposition Zrotation Yrotation Xrotation 
	JOINT LeftUpLeg
	{
		OFFSET 6.951974 -9.140623 -0.681533
		CHANNELS 3 Zrotation Yrotation Xrotation
		JOINT LeftLeg
		{
			OFFSET 3.427654 -37.519855 -0.449580
			CHANNELS 3 Zrotation Yrotation Xrotation
			JOINT LeftFoot
			{
				OFFSET -1.359570 -39.796059 -4.369333
				CHANNELS 3 Zrotation Yrotation Xrotation
				JOINT LeftToe
				{
					OFFSET 2.635814 -5.579078 11.928840
					CHANNELS 3 Zrotation Yrotation Xrotation
					End Site
					{
						OFFSET 0.000000 0.000000 0.000000
					}
				}
			}
		}
	}
	JOINT RightUpLeg
	{
		OFFSET -6.767048 -9.052170 -0.431982
		CHANNELS 3 Zrotation Yrotation Xrotation
		JOINT RightLeg
		{
			OFFSET -3.829005 -38.256897 -0.885003
			CHANNELS 3 Zrotation Yrotation Xrotation
			JOINT RightFoot
			{
				OFFSET 1.577377 -39.841461 -4.231180
				CHANNELS 3 Zrotation Yrotation Xrotation
				JOINT RightToe
				{
					OFFSET -2.537174 -4.814398 12.334795
					CHANNELS 3 Zrotation Yrotation Xrotation
					End Site
					{
						OFFSET 0.000000 0.000000 0.000000
					}
				}
			}
		}
	}
	JOINT Spine
	{
		OFFSET -0.253288 10.896323 -2.669631
		CHANNELS 3 Zrotation Yrotation Xrotation
		JOINT Spine1
		{
			OFFSET 0.548704 13.518043 0.109247
			CHANNELS 3 Zrotation Yrotation Xrotation
			JOINT Spine2
			{
				OFFSET 0.145701 5.292222 2.542457
				CHANNELS 3 Zrotation Yrotation Xrotation
				JOINT Neck
				{
					OFFSET -0.277840 21.387037 -4.285703
					CHANNELS 3 Zrotation Yrotation Xrotation
					JOINT Head
					{
						OFFSET 0.515184 6.496960 5.134897
						CHANNELS 3 Zrotation Yrotation Xrotation
						End Site
						{
							OFFSET 0.000000 0.000000 0.000000
						}
					}
				}
				JOINT LeftShoulder
				{
					OFFSET 7.884473 12.174932 -3.408961
					CHANNELS 3 Zrotation Yrotation Xrotation
					JOINT LeftArm
					{
						OFFSET 9.097692 3.046888 -0.886815
						CHANNELS 3 Zrotation Yrotation Xrotation
						JOINT LeftForeArm
						{
							OFFSET 25.961220 -1.277207 -2.745643
							CHANNELS 3 Zrotation Yrotation Xrotation
							JOINT LeftHand
							{
								OFFSET 24.923361 0.898606 -0.117091
								CHANNELS 3 Zrotation Yrotation Xrotation
								End Site
								{
									OFFSET 0.000000 0.000000 0.000000
								}
							}
						}
					}
				}
				JOINT RightShoulder
				{
					OFFSET -8.175920 11.883285 -3.861528
					CHANNELS 3 Zrotation Yrotation Xrotation
					JOINT RightArm
					{
						OFFSET -9.601238 3.255117 -0.914307
						CHANNELS 3 Zrotation Yrotation Xrotation
						JOINT RightForeArm
						{
							OFFSET -25.374195 -1.332924 -2.140099
							CHANNELS 3 Zrotation Yrotation Xrotation
							JOINT RightHand
							{
								OFFSET -25.529810 0.777228 -0.555919
								CHANNELS 3 Zrotation Yrotation Xrotation
								End Site
								{
									OFFSET 0.000000 0.000000 0.000000
								}
							}
						}
					}
				}
			}
		}
	}
}
MOTION
Frames: 8
Frame Time: 0.033333
-0.179506 101.264076 2.821913 173.017201 -70.973439 177.048463 12.839227 3.416735 2.902313 1.071872 -7.784033 7.930304 -6.553334 11.515345 -1.832536 0.595883 2.027999 1.461958 4.090174 -4.885982 5.238678 0.808184 -0.581354 0.716681 -1.799605 -13.706848 -10.298374 1.253182 -1.686539 0.288223 -1.245794 3.614829 -2.526618 0.481194 -1.959731 13.402541 -1.581591 2.216168 -9.240385 -7.558426 3.774626 13.387710 -0.005675 1.269598 -1.578208 -11.780624 0.653537 0.328590 -16.365544 -1.829836 3.186057 6.108423 -40.609431 -0.107068 -8.216534 -10.456854 14.198891 7.290812 6.831910 -1.817841 30.250759 6.723760 6.600784 -6.333169 52.148775 11.230456 9.396084 5.146919 8.186554 
-0.382783 101.257599 2.998517 173.478696 -70.946027 176.921098 12.824975 3.561498 2.768695 1.095172 -7.843667 7.750307 -6.354750 11.568513 -2.107424 0.531347 2.070345 1.483426 4.029865 -4.998557 5.068291 0.885441 -0.519334 0.572208 -1.765220 -13.508848 -10.200945 1.235066 -1.714779 0.322061 -1.313536 3.700375 -2.714510 0.474737 -1.969365 13.933198 -1.510015 2.277769 -9.255948 -7.654508 3.759499 14.239093 0.025010 0.998203 -1.346244 -11.285647 0.439195 0.305202 -15.307418 -1.805055 2.928616 5.766451 -41.390562 0.164832 -7.679997 -10.724952 14.736079 6.745098 6.999948 -1.733808 29.376254 6.766979 6.009981 -6.711357 53.224260 10.635191 8.441538 5.582828 8.257343 
-0.400935 101.254097 2.984342 173.162781 -71.005928 177.591057 12.684338 3.666305 2.419374 1.130607 -7.797384 7.597284 -6.180141 11.512321 -1.846531 0.385685 2.090439 1.471203 3.943615 -5.020449 4.638826 0.880300 -0.432138 0.633481 -1.816273 -13.478701 -10.171848 1.285621 -1.723841 0.343120 -1.353142 3.747233 -2.644786 0.395977 -1.980820 14.344952 -1.547827 2.316003 -9.381488 -7.731717 3.802892 15.228570 0.267048 0.557155 -1.209398 -10.677165 0.106669 0.151679 -14.124601 -2.041189 2.773428 5.518421 -42.023261 0.216452 -7.033562 -11.094839 14.920161 6.104327 7.077522 -1.739789 28.524574 6.759158 5.444518 -7.535300 54.612004 9.536499 7.061160 5.982226 7.711717 
-0.513228 101.250999 3.157268 173.088517 -71.256476 178.202323 12.499241 3.824995 1.934088 1.181227 -7.599165 7.317617 -6.260068 11.394272 -2.061559 0.398064 2.126968 1.458167 3.886596 -4.991708 3.945481 0.792577 -0.571412 0.850962 -1.772546 -13.596309 -10.201540 1.287599 -1.752434 0.435108 -1.409721 3.722618 -2.268064 0.152234 -2.001370 14.704874 -1.434585 2.336527 -9.305526 -7.889628 3.778820 16.344771 0.564717 0.148904 -1.247414 -10.000518 -0.248989 -0.085564 -12.930967 -2.405401 2.373922 5.400222 -42.887886 0.320016 -5.866585 -11.580489 15.324931 5.168759 7.238337 -1.786232 27.377344 6.935487 4.547157 -8.365785 56.139427 8.638090 5.368514 6.419385 7.811617 
-0.854871 101.241928 3.254914 172.901990 -71.716939 179.264730 12.210249 3.934525 1.200363 1.331926 -7.472442 6.997255 -6.253387 11.241248 -2.277701 0.293760 2.157082 1.411967 3.900412 -4.922783 2.923189 0.593337 -0.824074 1.290537 -1.838103 -13.865798 -10.370406 1.305730 -1.750740 0.493620 -1.596675 3.757681 -1.821700 -0.051534 -2.128765 15.165425 -1.313312 2.375280 -9.528161 -8.264729 3.704993 17.789703 1.185113 -0.174004 -1.549827 -9.046050 -0.995337 -0.241187 -11.152784 -2.700606 2.241282 4.270787 -43.385069 0.773990 -5.214343 -11.871390 15.856877 4.093418 7.651923 -1.832847 26.112977 6.812248 3.894059 -9.310244 57.950653 7.267196 3.748684 6.736291 7.646177 
-1.083183 101.229027 3.660143 173.357416 -72.341236 179.655260 12.057419 4.221661 0.433985 1.376904 -7.215669 6.496327 -6.131984 10.846536 -2.662595 0.114366 2.186684 1.344727 3.867164 -4.881965 1.922676 0.557487 -0.955510 1.570317 -1.912090 -14.202881 -10.251744 1.357002 -1.757994 0.540377 -1.587247 3.694369 -1.000637 -0.391745 -2.175987 15.440745 -1.047880 2.451257 -9.436031 -8.595079 3.672858 19.060645 1.883792 -0.471864 -1.573460 -7.992262 -1.794170 -0.438356 -9.323676 -3.068465 1.849257 3.403941 -44.040782 0.792897 -4.218849 -12.098825 16.256094 2.692691 8.057837 -1.898982 24.301923 6.835494 2.741734 -11.162031 60.107564 4.925472 1.968260 7.205931 7.535169 
-1.701110 101.211960 3.676897 172.956659 -73.261690 -178.707488 11.762174 4.367697 -0.522407 1.479491 -7.283406 5.956172 -6.153436 10.497858 -2.848878 -0.088010 2.199739 1.229709 3.843735 -4.851067 0.728545 0.405666 -1.133990 2.028887 -2.067160 -14.704243 -10.522918 1.292870 -1.694031 0.571809 -1.739806 3.649075 0.058451 -0.773138 -2.374142 16.038357 -0.714121 2.500824 -9.556698 -9.252513 3.530919 20.341004 2.520339 -1.010740 -2.119126 -6.706311 -2.919107 -0.476681 -7.157750 -3.278674 1.594700 2.178020 -44.647613 0.992966 -3.770267 -12.117799 17.443972 1.089185 8.719142 -1.830788 22.369541 6.948732 1.459170 -12.603527 61.939003 3.252690 0.352987 7.583269 8.388709 
-1.401396 101.186066 3.600447 171.696577 -74.127598 -176.329206 11.333269 4.297883 -1.804783 1.792650 -7.069525 4.994436 -6.390002 10.240405 -2.025381 -0.238820 2.168153 1.081704 3.955810 -4.800848 -1.039431 0.163661 -1.537830 2.485654 -2.077169 -15.324390 -10.523707 1.224905 -1.593032 0.561236 -1.760144 3.545154 1.496191 -1.109334 -2.502230 16.383195 -0.430268 2.420563 -9.530750 -9.720528 3.354143 21.338525 3.474924 -1.402945 -2.932615 -5.215974 -3.993931 -0.863202 -5.121672 -3.737803 1.332169 1.089074 -45.447703 1.280223 -3.916833 -12.032087 18.266821 -0.680492 9.507896 -1.891299 20.331921 7.197709 0.363140 -13.522305 63.218685 1.939901 -0.377596 7.855107 8.891456 
